# xmcd CD database file
#
# Track frame offsets:
#	150
#	20217
#	40891
#	58559
#	75073
#	94850
#	116498
#	137456
#	157542
#	183192
#	208761
#	214238
#	218219
#	222385
#	227621
#
# Disc length: 3126 seconds
#
# Submitted via: cddb-tool 0.4.5
#
#blues,classical,country,data,folk,jazz,newage,reggae,rock,soundtrack,misc
# Revision: 0
# Processed by: cddbd v1.5.1PL2 Copyright (c) Steve Scherf et al.
#
DISCID=c60c340f
DTITLE=Alvin Darling and Celebration - You Deserve My Worship
DYEAR=2005
DGENRE=Gospel
TTITLE0=Come On Over Here
TTITLE1=He Was There
TTITLE2=You Deserve My Worship
TTITLE3=Testamony
TTITLE4=From Me To You
TTITLE5=Talk About Jesus
TTITLE6=All Night
TTITLE7=I'd Rather Dwell
TTITLE8=In The Sanctuary
TTITLE9=I've Got A Feeling
TTITLE10=It's Him
TTITLE11=Good News
TTITLE12=When I Came To Jesus
TTITLE13=When I Think About Jesus
TTITLE14=Man Going Around
EXTD=
EXTT0=
EXTT1=
EXTT2=
EXTT3=
EXTT4=
EXTT5=
EXTT6=
EXTT7=
EXTT8=
EXTT9=
EXTT10=
EXTT11=
EXTT12=
EXTT13=
EXTT14=
PLAYORDER=
